<svg width="40" height="40" viewBox="0 0 40 40" fill="none" xmlns="http://www.w3.org/2000/svg">
<path fill-rule="evenodd" clip-rule="evenodd" d="M26.0858 6.58579L13.5858 19.0858L12.1716 20.5L13.5858 21.9142L26.0858 34.4142L28.9142 31.5858L19.8284 22.5L40 22.5L40 38C40 39.1046 39.1046 40 38 40L2 40C0.89543 40 -1.70931e-06 39.1046 -1.66103e-06 38L-8.74228e-08 2C-3.91405e-08 0.895429 0.895432 -1.70931e-06 2 -1.66103e-06L38 -8.74228e-08C39.1046 -3.91405e-08 40 0.895431 40 2L40 18.5L19.8284 18.5L28.9142 9.41421L26.0858 6.58579Z" fill="#1F2748"/>
</svg>
