<svg width="21" height="16" viewBox="0 0 21 16" fill="none" xmlns="http://www.w3.org/2000/svg">
<circle cx="10.7686" cy="4" r="3" stroke="#1F2748" stroke-width="2" stroke-linecap="round"/>
<path d="M14.0365 4C14.3017 3.54063 14.7386 3.20543 15.2509 3.06815C15.7633 2.93086 16.3092 3.00273 16.7686 3.26795C17.2279 3.53317 17.5631 3.97 17.7004 4.48236C17.8377 4.99472 17.7658 5.54063 17.5006 6C17.2354 6.45937 16.7986 6.79457 16.2862 6.93185C15.7738 7.06914 15.2279 6.99727 14.7686 6.73205C14.3092 6.46683 13.974 6.03 13.8367 5.51764C13.6994 5.00528 13.7713 4.45937 14.0365 4L14.0365 4Z" stroke="#1F2748" stroke-width="2"/>
<path d="M4.0365 4C4.30172 3.54063 4.73856 3.20543 5.25092 3.06815C5.76328 2.93086 6.30919 3.00273 6.76855 3.26795C7.22792 3.53317 7.56312 3.97 7.70041 4.48236C7.83769 4.99472 7.76582 5.54063 7.50061 6C7.23539 6.45937 6.79855 6.79457 6.28619 6.93185C5.77383 7.06914 5.22792 6.99727 4.76855 6.73205C4.30919 6.46683 3.97399 6.03 3.8367 5.51764C3.69942 5.00528 3.77129 4.45937 4.0365 4L4.0365 4Z" stroke="#1F2748" stroke-width="2"/>
<path d="M15.6501 14L14.6698 14.1974L14.8314 15H15.6501V14ZM19.4887 12.9042L20.4312 12.5699L19.4887 12.9042ZM13.5493 10.7105L12.9445 9.9142L11.7879 10.7927L13.0212 11.5597L13.5493 10.7105ZM18.6357 13H15.6501V15H18.6357V13ZM18.5462 13.2384C18.5392 13.2186 18.5327 13.181 18.541 13.1354C18.5489 13.0921 18.5667 13.0593 18.5836 13.0383C18.6159 12.9982 18.6425 13 18.6357 13V15C19.7817 15 20.9099 13.9194 20.4312 12.5699L18.5462 13.2384ZM15.7685 11C17.4101 11 18.1712 12.1811 18.5462 13.2384L20.4312 12.5699C19.9661 11.2588 18.717 9 15.7685 9V11ZM14.1542 11.5069C14.5386 11.2148 15.0505 11 15.7685 11V9C14.6066 9 13.6713 9.36215 12.9445 9.9142L14.1542 11.5069ZM13.0212 11.5597C14.0603 12.206 14.4956 13.3324 14.6698 14.1974L16.6304 13.8026C16.4125 12.7204 15.8059 10.9364 14.0774 9.86137L13.0212 11.5597Z" fill="#1F2748"/>
<path d="M7.98779 10.7105L8.51592 11.5597L9.74923 10.7927L8.59265 9.91418L7.98779 10.7105ZM2.04842 12.9041L2.99088 13.2384L2.99088 13.2384L2.04842 12.9041ZM5.88697 14V15H6.70565L6.86729 14.1974L5.88697 14ZM5.76863 11C6.48665 11 6.99848 11.2148 7.38294 11.5069L8.59265 9.91418C7.86585 9.36214 6.93051 9 5.76863 9V11ZM2.99088 13.2384C3.36593 12.1811 4.12704 11 5.76863 11V9C2.82012 9 1.571 11.2587 1.10595 12.5699L2.99088 13.2384ZM2.9014 13C2.89462 13 2.92125 12.9982 2.95348 13.0383C2.97037 13.0593 2.98822 13.0921 2.9961 13.1354C3.00441 13.181 2.99793 13.2186 2.99088 13.2384L1.10595 12.5699C0.627251 13.9194 1.75539 15 2.9014 15V13ZM5.88697 13H2.9014V15H5.88697V13ZM6.86729 14.1974C7.0415 13.3324 7.47676 12.206 8.51592 11.5597L7.45967 9.86135C5.73118 10.9363 5.12461 12.7203 4.90665 13.8026L6.86729 14.1974Z" fill="#1F2748"/>
<path d="M10.7686 10C14.3401 10 15.3605 12.5512 15.652 14.0089C15.7603 14.5504 15.3208 15 14.7686 15H6.76855C6.21627 15 5.77685 14.5504 5.88515 14.0089C6.17666 12.5512 7.19702 10 10.7686 10Z" stroke="#1F2748" stroke-width="2" stroke-linecap="round"/>
</svg>
