<svg width="26" height="24" viewBox="0 0 26 24" fill="none" xmlns="http://www.w3.org/2000/svg">
<path fill-rule="evenodd" clip-rule="evenodd" d="M22.9095 3.2H5.22879L3.7184 0.492285C3.54816 0.188413 3.22816 0 2.88 0H0.96C0.43008 0 0 0.429824 0 0.96C0 1.49018 0.43008 1.92 0.96 1.92H2.3168L3.80672 4.59226L7.2448 12.1996L7.24863 12.2072L7.55199 12.8773L4.09984 16.5594C3.85152 16.8242 3.77343 17.2063 3.89887 17.5469C4.02431 17.8876 4.33025 18.1286 4.69121 18.1699L7.83742 18.5294C11.7734 18.9792 15.7466 18.9792 19.6826 18.5294L22.8288 18.1699C23.3561 18.1096 23.7338 17.6338 23.6736 17.1069C23.6134 16.5802 23.1373 16.202 22.6112 16.2623L19.465 16.6218C15.6736 17.055 11.8464 17.055 8.05504 16.6218L6.80703 16.4791L9.34016 13.7766C9.36448 13.7504 9.38754 13.7233 9.4093 13.6952L10.3718 13.8207C11.7222 13.9964 13.088 14.0309 14.4448 13.9235C17.6115 13.6731 20.5453 12.1665 22.5933 9.73965L23.3344 8.86311C23.3587 8.83367 23.3817 8.80269 23.4022 8.77043L24.7821 6.66893C25.76 5.17926 24.6912 3.2 22.9095 3.2ZM9.47969 11.7683C9.26849 11.7408 9.08543 11.6064 8.99711 11.4125L8.99457 11.4088L6.15297 5.12H22.9095C23.1642 5.12 23.3165 5.40275 23.177 5.61562L21.8291 7.66874L21.1264 8.50112C19.4086 10.5362 16.9485 11.7994 14.2937 12.0095C13.0688 12.1062 11.8374 12.0751 10.6202 11.9167L9.47969 11.7683Z" fill="#1F2748"/>
<path d="M6.7198 20.16C5.65996 20.16 4.7998 21.0197 4.7998 22.08C4.7998 23.1404 5.65996 24 6.7198 24C7.77964 24 8.6398 23.1404 8.6398 22.08C8.6398 21.0197 7.77964 20.16 6.7198 20.16Z" fill="#1F2748"/>
<path d="M18.8799 22.08C18.8799 21.0197 19.74 20.16 20.7999 20.16C21.8597 20.16 22.7199 21.0197 22.7199 22.08C22.7199 23.1404 21.8597 24 20.7999 24C19.74 24 18.8799 23.1404 18.8799 22.08Z" fill="#1F2748"/>
</svg>
