<svg width="18" height="20" viewBox="0 0 18 20" fill="none" xmlns="http://www.w3.org/2000/svg">
<path d="M5 6L5 5C5 2.79086 6.79086 1 9 1V1C11.2091 1 13 2.79086 13 5L13 6" stroke="#1F2748" stroke-width="2" stroke-linecap="round"/>
<path d="M12 12V10" stroke="#1F2748" stroke-width="2" stroke-linecap="round"/>
<path d="M6 12V10" stroke="#1F2748" stroke-width="2" stroke-linecap="round"/>
<path d="M1 10C1 8.11438 1 7.17157 1.58579 6.58579C2.17157 6 3.11438 6 5 6H13C14.8856 6 15.8284 6 16.4142 6.58579C17 7.17157 17 8.11438 17 10V11C17 14.7712 17 16.6569 15.8284 17.8284C14.6569 19 12.7712 19 9 19V19C5.22876 19 3.34315 19 2.17157 17.8284C1 16.6569 1 14.7712 1 11V10Z" stroke="#1F2748" stroke-width="2"/>
</svg>
