<svg width="20" height="20" viewBox="0 0 20 20" fill="none" xmlns="http://www.w3.org/2000/svg">
<path d="M12.5 19V14C12.5 13.4477 12.0523 13 11.5 13H8.5C7.94772 13 7.5 13.4477 7.5 14V19" stroke="#1F2748" stroke-width="2" stroke-linecap="round" stroke-linejoin="round"/>
<path d="M3 9V15C3 16.8856 3 17.8284 3.58579 18.4142C4.17157 19 5.11438 19 7 19H13C14.8856 19 15.8284 19 16.4142 18.4142C17 17.8284 17 16.8856 17 15V9" stroke="#1F2748" stroke-width="2"/>
<path d="M2.62127 2.51493C2.80316 1.78737 2.8941 1.42359 3.16536 1.21179C3.43663 1 3.8116 1 4.56155 1H15.4384C16.1884 1 16.5634 1 16.8346 1.21179C17.1059 1.42359 17.1968 1.78737 17.3787 2.51493L18.5823 7.32938C18.6792 7.71675 18.7276 7.91044 18.7169 8.06776C18.6892 8.47569 18.416 8.82566 18.0269 8.95148C17.8769 9 17.6726 9 17.2641 9V9C16.7309 9 16.4644 9 16.2405 8.94784C15.6133 8.80172 15.0948 8.3625 14.8475 7.76781C14.7593 7.55555 14.7164 7.29856 14.6308 6.78457V6.78457C14.6068 6.64076 14.5948 6.56886 14.5812 6.54994C14.5413 6.49439 14.4587 6.49439 14.4188 6.54994C14.4052 6.56886 14.3932 6.64076 14.3692 6.78457L14.2877 7.27381C14.2791 7.32568 14.2747 7.35161 14.2704 7.37433C14.0939 8.30051 13.2946 8.97766 12.352 8.99947C12.3289 9 12.3026 9 12.25 9V9C12.1974 9 12.1711 9 12.148 8.99947C11.2054 8.97766 10.4061 8.30051 10.2296 7.37433C10.2253 7.35161 10.2209 7.32568 10.2123 7.27381L10.1308 6.78457C10.1068 6.64076 10.0948 6.56886 10.0812 6.54994C10.0413 6.49439 9.95868 6.49439 9.91878 6.54994C9.90519 6.56886 9.89321 6.64076 9.86924 6.78457L9.7877 7.27381C9.77905 7.32568 9.77473 7.35161 9.7704 7.37433C9.59394 8.30051 8.79459 8.97766 7.85199 8.99947C7.82887 9 7.80258 9 7.75 9V9C7.69742 9 7.67113 9 7.64801 8.99947C6.70541 8.97766 5.90606 8.30051 5.7296 7.37433C5.72527 7.35161 5.72095 7.32568 5.7123 7.27381L5.63076 6.78457C5.60679 6.64076 5.59481 6.56886 5.58122 6.54994C5.54132 6.49439 5.45868 6.49439 5.41878 6.54994C5.40519 6.56886 5.39321 6.64076 5.36924 6.78457V6.78457C5.28357 7.29856 5.24074 7.55555 5.15249 7.76781C4.90524 8.3625 4.38675 8.80172 3.75951 8.94784C3.53563 9 3.26905 9 2.73591 9V9C2.32737 9 2.12309 9 1.97306 8.95148C1.58403 8.82566 1.31078 8.47569 1.28307 8.06776C1.27239 7.91044 1.32081 7.71675 1.41765 7.32938L2.62127 2.51493Z" stroke="#1F2748" stroke-width="2"/>
</svg>
