<svg width="43" height="43" viewBox="0 0 43 43" fill="none" xmlns="http://www.w3.org/2000/svg">
<path d="M21.5 42.3933C33.3741 42.3933 43 32.9032 43 21.1967C43 9.49016 33.3741 0 21.5 0C9.62588 0 0 9.49016 0 21.1967C0 32.9032 9.62588 42.3933 21.5 42.3933Z" fill="#21B52B"/>
<path d="M15.7039 24.3954C15.665 24.3685 15.6227 24.3471 15.5782 24.331C15.2187 24.1957 14.694 23.8363 14.4019 23.6506C14.1754 23.5066 14.2104 23.3927 14.2412 23.3453L14.2601 23.3224L14.2616 23.3213C14.7583 22.7203 15.0462 21.8642 15.0462 20.7837C15.0462 18.8736 14.2177 17.325 11.969 17.325C9.89973 17.325 8.90605 18.8733 8.90605 20.7837C8.90605 22.6941 9.57408 24.3292 11.969 24.3292C12.4553 24.3292 12.9027 24.237 13.2959 24.0585H13.2971C13.4128 24.0093 13.5254 24.0107 13.68 24.1218C14.7908 24.9328 15.3417 25.2311 15.7358 25.2311C15.926 25.2311 15.8922 24.6551 15.8922 24.6551C15.8922 24.6551 15.8649 24.5095 15.7039 24.3954ZM40.9917 20.7626L36.6813 17.2025C36.6659 17.1897 36.6461 17.1832 36.6259 17.1844C36.6058 17.1855 36.5868 17.194 36.573 17.2084L35.936 17.8624L39.456 20.7626L35.936 23.6623L36.573 24.3163C36.6025 24.3466 36.649 24.348 36.6813 24.3222L40.9917 20.7626ZM37.8941 20.7333L33.5834 17.1738C33.568 17.1611 33.5482 17.1545 33.5282 17.1556C33.5081 17.1568 33.4892 17.1653 33.4753 17.1797L32.8381 17.8337L36.3584 20.7333L32.8381 23.6336L33.4753 24.2876C33.5046 24.3176 33.5514 24.3193 33.5834 24.2935L37.8941 20.7333ZM31.0293 17.4346C30.9679 17.4118 30.6127 17.4141 30.6127 17.4141C30.3747 17.4201 30.2225 17.4145 30.116 17.56C30.1008 17.5814 30.0876 17.6037 30.0764 17.6274L28.6546 20.6601L27.1907 17.6292C27.1795 17.6055 27.1663 17.5826 27.1511 17.5612C27.0446 17.4156 26.8924 17.4203 26.6544 17.4158C26.6544 17.4158 26.2992 17.4127 26.2378 17.4358C26.0917 17.4907 26.1882 17.6676 26.2566 17.8132L28.0526 21.3457C28.1347 21.5072 28.1767 21.6844 28.1767 21.8644V23.9964C28.1767 24.1404 28.2954 24.2577 28.4415 24.2577H28.8168C28.9629 24.2577 29.0816 24.1404 29.0816 23.9964V21.8743C29.0816 21.6943 29.1239 21.5174 29.2054 21.3557L31.0086 17.812C31.0786 17.6662 31.1754 17.4895 31.0293 17.4346ZM24.3222 17.7757C24.2565 17.5857 24.1701 17.4248 23.9844 17.4176H23.52C23.5059 17.4158 23.4916 17.4143 23.4774 17.4141H23.3286C23.3143 17.4143 23.3001 17.4158 23.2859 17.4176C23.1313 17.4407 23.0537 17.593 22.9953 17.7716L20.7012 24.0913C20.7012 24.175 20.7699 24.2431 20.8546 24.2431H21.3339C21.5238 24.2431 21.6218 24.0886 21.6787 23.9026L22.1361 22.5864C22.1517 22.5421 22.1809 22.5039 22.2196 22.4768C22.2584 22.4497 22.3047 22.4351 22.3522 22.4352H24.9038C25 22.4352 25.0864 22.4955 25.1184 22.5852L25.595 23.9155C25.6534 24.1015 25.7557 24.256 25.9541 24.256H26.4557C26.4763 24.2564 26.4968 24.2528 26.5161 24.2454C26.5353 24.2381 26.5529 24.2272 26.5678 24.2132C26.5827 24.1991 26.5947 24.182 26.603 24.1634C26.6114 24.1448 26.6159 24.1251 26.6164 24.1048L24.3222 17.7757ZM19.9896 17.7874C19.6871 17.5857 19.2692 17.4434 18.47 17.4434H16.9224C16.8337 17.4434 16.7485 17.4782 16.6857 17.5401C16.6229 17.602 16.5877 17.6858 16.5877 17.7733V23.9044C16.5877 24.0916 16.7414 24.2442 16.9328 24.2442H17.1988C17.3887 24.2442 17.5436 24.0931 17.5436 23.9044V21.6007H18.9375C19.0735 21.6007 20.8183 21.3316 20.8183 19.4587C20.8165 18.6435 20.3929 18.0583 19.9896 17.7874ZM7.28421 17.41H6.74065C6.71378 17.4099 6.68717 17.4151 6.66234 17.4252C6.63751 17.4353 6.61494 17.4504 6.59594 17.4692C6.57694 17.4879 6.56188 17.5103 6.55162 17.5348C6.54135 17.5593 6.53609 17.5851 6.53613 17.6116V24.0298C6.53613 24.1462 6.63261 24.2431 6.75221 24.2431H7.27568C7.39377 24.2431 7.49177 24.1477 7.49177 24.0298V17.6133C7.49121 17.5594 7.46911 17.5078 7.43027 17.4698C7.39142 17.4317 7.33894 17.4101 7.28421 17.41ZM5.33945 23.4291H2.91232V17.6133C2.91236 17.5868 2.9071 17.5605 2.89683 17.536C2.88657 17.5115 2.87151 17.4891 2.85251 17.4703C2.83351 17.4516 2.81095 17.4371 2.78611 17.427C2.76128 17.4169 2.73467 17.4117 2.7078 17.4117H2.21233C2.18546 17.4117 2.15885 17.4169 2.13402 17.427C2.10919 17.4371 2.08662 17.4516 2.06763 17.4703C2.04863 17.4891 2.03356 17.5115 2.0233 17.536C2.01304 17.5605 2.00777 17.5868 2.00781 17.6133V23.9624C2.00781 24.0944 2.11585 24.2009 2.25037 24.2009H5.34067C5.36832 24.201 5.39572 24.196 5.42129 24.1856C5.44686 24.1753 5.4701 24.1598 5.48965 24.1405C5.5092 24.1212 5.52469 24.0983 5.53521 24.0731C5.54574 24.0479 5.55109 24.0213 5.55097 23.994V23.6365C5.55018 23.5815 5.52757 23.5288 5.48798 23.49C5.44839 23.4512 5.39497 23.429 5.33915 23.4285L5.33945 23.4291ZM9.88816 20.7984V20.7837C9.89121 19.4875 10.3702 18.1115 11.9717 18.1115C13.7868 18.1115 14.0644 19.4872 14.0656 20.7837V20.7984C14.0656 22.3415 13.5588 23.5135 11.9717 23.5135C10.1496 23.5135 9.88816 22.0994 9.88816 20.7984ZM24.797 21.6874H22.3288L23.6238 18.1115L24.797 21.6874ZM18.6204 20.8951H17.5421V18.149H18.3106C18.8383 18.149 19.114 18.2425 19.3146 18.3763C19.5818 18.5552 19.8609 18.9415 19.8609 19.4804C19.8624 20.7181 18.7111 20.8951 18.6204 20.8951Z" fill="white"/>
</svg>
