<svg width="43" height="43" viewBox="0 0 43 43" fill="none" xmlns="http://www.w3.org/2000/svg">
<path d="M43 21.1967C43 32.9037 33.3746 42.3933 21.501 42.3933C9.62643 42.3933 0 32.9037 0 21.1967C0 9.49061 9.62643 0 21.501 0C33.3746 0 43 9.49061 43 21.1967Z" fill="#3C80AD"/>
<path d="M14.4722 10.9092C9.04683 10.943 4.65332 15.3043 4.65332 20.672C4.65332 26.0606 9.08009 30.4338 14.5347 30.4338C17.0942 30.4338 19.427 29.4702 21.1834 27.8906C21.5442 27.5667 21.8797 27.216 22.1881 26.8444H20.1636C19.8959 26.5253 19.6498 26.1891 19.427 25.8381H22.9176C23.1313 25.5033 23.3227 25.1545 23.494 24.7939H18.8516C18.6938 24.46 18.5559 24.1174 18.4385 23.7677H23.9072C24.4705 22.0944 24.5676 20.3027 24.1883 18.5798H18.1483C18.2238 18.233 18.3175 17.8913 18.4294 17.5555H23.9011C23.7797 17.1993 23.6374 16.8503 23.4749 16.5104H18.8496C19.0169 16.1577 19.2063 15.8159 19.4179 15.4851H22.9066C22.6748 15.1203 22.4186 14.7711 22.1397 14.44H20.1949C20.4952 14.0893 20.8257 13.7604 21.1844 13.4545C19.3697 11.8151 16.9971 10.9068 14.5357 10.9092H14.4722Z" fill="#931B1D"/>
<path d="M37.6704 20.675C37.6704 26.0656 33.2497 30.4368 27.7911 30.4388C22.3355 30.4408 17.9107 26.0705 17.9087 20.679V20.675C17.9067 15.2824 22.3304 10.9102 27.787 10.9092C33.2437 10.9072 37.6694 15.2775 37.6704 20.67V20.675Z" fill="#F16622"/>
<path d="M37.6704 20.7824C37.6704 26.174 33.2497 30.5462 27.7911 30.5472C22.3355 30.5492 17.9107 26.1789 17.9087 20.7874V20.7824C17.9067 15.3908 22.3304 11.0186 27.787 11.0176C33.2437 11.0156 37.6694 15.3859 37.6704 20.7774V20.7824Z" fill="#F7981D"/>
<path d="M14.4722 11.0195C9.04683 11.0543 4.65332 15.4146 4.65332 20.7824C4.65332 26.1719 9.08009 30.5452 14.5347 30.5452C17.0942 30.5452 19.427 29.5815 21.1834 28.0019V27.9999C21.5442 27.677 21.8797 27.3283 22.1881 26.9548H20.1636C19.8957 26.6362 19.6496 26.3003 19.427 25.9494H22.9176C23.131 25.6128 23.3235 25.2638 23.494 24.9043H18.8516C18.6941 24.5709 18.5561 24.229 18.4385 23.88H23.9072C24.4707 22.2068 24.5678 20.415 24.1883 18.6921H18.1483C18.2238 18.3444 18.3175 18.0016 18.4294 17.6668H23.9011C23.7796 17.3103 23.6373 16.961 23.4749 16.6207H18.8496C19.0169 16.27 19.2063 15.9263 19.4179 15.5955H22.9066C22.6743 15.231 22.4182 14.8818 22.1397 14.5503H20.1949C20.4952 14.2006 20.8257 13.8708 21.1844 13.5648C19.3696 11.9256 16.997 11.0173 14.5357 11.0195H14.4722Z" fill="#CB2026"/>
<path d="M18.0881 23.2681L18.2201 22.3849C18.1486 22.3849 18.0428 22.4147 17.9491 22.4147C17.5833 22.4147 17.542 22.2229 17.5661 22.0809L17.8614 20.2777H18.4186L18.5527 19.3002H18.0287L18.1355 18.6931H17.0824C17.0603 18.715 16.4617 22.1107 16.4617 22.524C16.4617 23.1359 16.8084 23.4082 17.3001 23.4042C17.683 23.4012 17.9833 23.2959 18.0881 23.2681ZM18.4217 21.5841C18.4217 23.0525 19.4031 23.4022 20.2395 23.4022C21.0104 23.4022 21.35 23.2313 21.35 23.2313L21.5354 22.2279C21.5354 22.2279 20.9489 22.4852 20.4189 22.4852C19.2893 22.4852 19.4868 21.6527 19.4868 21.6527H21.6251C21.6251 21.6527 21.7631 20.9781 21.7631 20.7039C21.7631 20.0194 21.4175 19.1839 20.2627 19.1839C19.2046 19.1849 18.4217 20.3105 18.4217 21.5841ZM20.2667 20.1148C20.8613 20.1148 20.7504 20.7745 20.7504 20.8281H19.5835C19.5835 20.7596 19.6934 20.1148 20.2667 20.1148ZM26.9286 23.2681L27.117 22.1335C27.117 22.1335 26.6 22.3918 26.2463 22.3918C25.5007 22.3918 25.2014 21.8256 25.2014 21.2225C25.2014 19.9946 25.8433 19.319 26.5587 19.319C27.0938 19.319 27.5251 19.6171 27.5251 19.6171L27.6964 18.5173C27.6964 18.5173 27.0585 18.261 26.5114 18.261C25.2971 18.261 24.1151 19.3011 24.1151 21.2583C24.1151 22.5528 24.753 23.4101 26.0095 23.4101C26.3642 23.4101 26.9286 23.2681 26.9286 23.2681ZM12.302 19.2008C11.5805 19.2008 11.0273 19.4293 11.0273 19.4293L10.8761 20.3254C10.8761 20.3254 11.3316 20.1426 12.0218 20.1426C12.4138 20.1426 12.7 20.1853 12.7 20.5003C12.7 20.691 12.6647 20.7615 12.6647 20.7615C12.6647 20.7615 12.3564 20.7367 12.2133 20.7367C11.3034 20.7367 10.3471 21.1192 10.3471 22.2766C10.3471 23.1886 10.9739 23.3982 11.3628 23.3982C12.1055 23.3982 12.4249 22.9214 12.442 22.9204L12.4078 23.3177H13.3339L13.747 20.4546C13.747 19.2396 12.6748 19.2008 12.302 19.2008ZM12.5277 21.5315C12.5479 21.7063 12.4169 22.526 11.783 22.526C11.4565 22.526 11.3709 22.2796 11.3709 22.1335C11.3709 21.8494 11.5281 21.5076 12.298 21.5076C12.4783 21.5076 12.4975 21.5275 12.5277 21.5315ZM14.7325 23.3764C14.9683 23.3764 16.3227 23.436 16.3227 22.055C16.3227 20.7635 15.0691 21.0179 15.0691 20.4993C15.0691 20.242 15.2736 20.1595 15.6465 20.1595C15.7956 20.1595 16.366 20.2072 16.366 20.2072L16.499 19.2892C16.499 19.2892 16.1302 19.2078 15.5286 19.2078C14.7497 19.2078 13.9606 19.5138 13.9606 20.5638C13.9606 21.756 15.2777 21.6348 15.2777 22.1365C15.2777 22.4703 14.9089 22.4981 14.6257 22.4981C14.135 22.4981 13.6936 22.3322 13.6916 22.3392L13.5515 23.2482C13.5757 23.2562 13.8488 23.3764 14.7315 23.3764H14.7325ZM35.642 18.3772L35.4163 19.7681C35.4163 19.7681 35.0203 19.2286 34.4005 19.2286C33.4362 19.2286 32.6331 20.3771 32.6331 21.6964C32.6331 22.5478 33.0613 23.3813 33.938 23.3813C34.5678 23.3813 34.9165 22.9482 34.9165 22.9482L34.8711 23.3177H35.8939L36.6981 18.3752L35.642 18.3772ZM35.1543 21.0904C35.1543 21.6388 34.8792 22.372 34.3078 22.372C33.93 22.372 33.7536 22.058 33.7536 21.5653C33.7536 20.7606 34.1194 20.2271 34.5809 20.2271C34.9598 20.2271 35.1553 20.4854 35.1553 21.0914L35.1543 21.0904ZM6.60553 23.3227L7.24642 19.5903L7.34013 23.3227H8.06567L9.41698 19.5903L8.81841 23.3227H9.89462L10.725 18.3742H9.05925L8.02133 21.4093L7.96792 18.3742H6.43322L5.5918 23.3217H6.60553V23.3227ZM22.8142 23.3297C23.1215 21.609 23.1769 20.2122 23.9095 20.4665C24.0375 19.8009 24.1604 19.5436 24.2995 19.2614C24.2995 19.2614 24.234 19.2485 24.097 19.2485C23.6264 19.2485 23.2767 19.8843 23.2767 19.8843L23.3704 19.3002H22.3899L21.7349 23.3297H22.8152H22.8142ZM29.3561 19.2008C28.921 19.2011 28.4896 19.2785 28.0824 19.4293L27.9302 20.3254C27.9302 20.3254 28.3857 20.1426 29.0759 20.1426C29.4669 20.1426 29.7541 20.1853 29.7541 20.5003C29.7541 20.691 29.7188 20.7615 29.7188 20.7615C29.7188 20.7615 29.4105 20.7367 29.2654 20.7367C28.3564 20.7367 27.4012 21.1192 27.4012 22.2766C27.4012 23.1886 28.0279 23.3982 28.4169 23.3982C29.1586 23.3982 29.478 22.9214 29.4951 22.9204L29.4609 23.3177H30.3879L30.8011 20.4546C30.8011 19.2396 29.7289 19.2008 29.3561 19.2008ZM29.5818 21.5315C29.6019 21.7063 29.4709 22.526 28.8361 22.526C28.5106 22.526 28.426 22.2796 28.426 22.1335C28.426 21.8494 28.5822 21.5076 29.353 21.5076C29.5324 21.5076 29.5506 21.5275 29.5818 21.5315ZM31.6465 23.3297C31.9539 21.609 32.0093 20.2122 32.7419 20.4665C32.8689 19.8009 32.9928 19.5436 33.1329 19.2614C33.1329 19.2614 33.0664 19.2485 32.9293 19.2485C32.4577 19.2485 32.1091 19.8843 32.1091 19.8843L32.2028 19.3002H31.2233L30.5673 23.3297H31.6465Z" fill="white"/>
</svg>
