<svg width="43" height="43" viewBox="0 0 43 43" fill="none" xmlns="http://www.w3.org/2000/svg">
<path d="M21.5 42.3937C33.3741 42.3937 43 32.9034 43 21.1968C43 9.49023 33.3741 0 21.5 0C9.62588 0 0 9.49023 0 21.1968C0 32.9034 9.62588 42.3937 21.5 42.3937Z" fill="#030404"/>
<path d="M11.3001 17.6477C12.165 17.6477 12.8622 17.9021 13.3787 18.3984C13.8824 18.9076 14.1405 19.6714 14.1405 20.6769V24.5981H12.1263V20.9828C12.1263 20.4355 12.0101 20.028 11.7907 19.7609C11.5581 19.4936 11.2355 19.366 10.8095 19.366C10.3316 19.366 9.95729 19.5188 9.68613 19.8113C9.41496 20.1168 9.27283 20.5627 9.27283 21.161V24.5981H7.25869V20.9828C7.25869 19.9008 6.81982 19.366 5.9418 19.366C5.47706 19.366 5.10242 19.5188 4.83125 19.8113C4.56038 20.1168 4.41825 20.5627 4.41825 21.161V24.5981H2.40381V17.7491H4.32787V18.5385C4.58595 18.2459 4.90886 18.0296 5.2835 17.8768C5.65784 17.7238 6.05805 17.6477 6.51 17.6477C7.0006 17.6477 7.43947 17.7364 7.83998 17.9272C8.23989 18.1313 8.55001 18.3986 8.79532 18.7676C9.08156 18.4074 9.45421 18.1229 9.87969 17.9401C10.3058 17.749 10.7836 17.6477 11.3001 17.6477ZM19.3311 24.6994C18.5952 24.6994 17.9493 24.5466 17.3556 24.2412C16.7874 23.9483 16.3226 23.5288 15.9997 22.9941C15.6771 22.4597 15.5091 21.8484 15.5091 21.1739C15.5091 20.4991 15.6771 19.8877 15.9997 19.3531C16.3226 18.8184 16.7874 18.3988 17.3556 18.106C17.9493 17.8005 18.5952 17.6477 19.3308 17.6477C20.0673 17.6477 20.7125 17.8008 21.2938 18.106C21.8748 18.3988 22.3264 18.8184 22.6493 19.3531C22.9719 19.8877 23.1399 20.4991 23.1399 21.1739C23.1399 21.8484 22.9722 22.4597 22.6493 22.9941C22.3267 23.5288 21.8748 23.9483 21.2935 24.2412C20.7125 24.5466 20.067 24.6994 19.3311 24.6994ZM19.3311 23.0703C19.8475 23.0703 20.2736 22.892 20.6093 22.5481C20.9319 22.2046 21.0999 21.7467 21.0999 21.1739C21.0999 20.6008 20.9322 20.1426 20.6093 19.7861C20.2736 19.4426 19.8475 19.2769 19.3311 19.2769C18.8146 19.2769 18.3885 19.4426 18.0528 19.7861C17.7171 20.1426 17.5491 20.6011 17.5491 21.1739C17.5491 21.7467 17.7171 22.2046 18.0528 22.5481C18.3885 22.892 18.8146 23.0703 19.3311 23.0703ZM28.7048 17.6477C29.5701 17.6477 30.267 17.9021 30.7966 18.4113C31.3261 18.9202 31.5842 19.6714 31.5842 20.6769V24.5981H29.5701V20.9828C29.5701 20.4355 29.4538 20.028 29.2085 19.7609C28.9632 19.4936 28.6144 19.366 28.1625 19.366C27.6591 19.366 27.2458 19.5188 26.9488 19.8242C26.652 20.1423 26.4971 20.6011 26.4971 21.212V24.5981H24.4827V17.7491H26.4067V18.5514C26.6776 18.2585 27.0005 18.0422 27.4007 17.8768C27.8009 17.7238 28.227 17.6477 28.7048 17.6477ZM36.7876 24.6994C36.0514 24.6994 35.4058 24.5466 34.8121 24.2412C34.2439 23.9483 33.7791 23.5288 33.4562 22.9941C33.1336 22.4597 32.9656 21.8484 32.9656 21.1739C32.9656 20.4991 33.1333 19.8877 33.4562 19.3531C33.7788 18.8184 34.2439 18.3988 34.8121 18.106C35.4058 17.8005 36.0514 17.6477 36.7873 17.6477C37.5235 17.6477 38.169 17.8008 38.7503 18.106C39.331 18.3988 39.7829 18.8184 40.1058 19.3531C40.4284 19.8877 40.5964 20.4991 40.5964 21.1739C40.5964 21.8484 40.4284 22.4597 40.1058 22.9941C39.7832 23.5288 39.331 23.9483 38.75 24.2412C38.169 24.5466 37.5235 24.6994 36.7876 24.6994ZM36.7876 23.0703C37.304 23.0703 37.7301 22.892 38.0658 22.5481C38.3884 22.2046 38.5564 21.7467 38.5564 21.1739C38.5564 20.6008 38.3884 20.1426 38.0658 19.7861C37.7301 19.4426 37.304 19.2769 36.7876 19.2769C36.2711 19.2769 35.845 19.4426 35.5093 19.7861C35.1736 20.1426 35.0056 20.6011 35.0056 21.1739C35.0056 21.7467 35.1736 22.2046 35.5093 22.5481C35.845 22.892 36.2711 23.0703 36.7876 23.0703Z" fill="white"/>
</svg>
