<svg width="43" height="44" viewBox="0 0 43 44" fill="none" xmlns="http://www.w3.org/2000/svg">
<path d="M21.4989 43.3355C33.3729 43.3355 42.9987 33.8453 42.9987 22.1388C42.9987 10.4323 33.3729 0.942139 21.4989 0.942139C9.62483 0.942139 -0.000976562 10.4323 -0.000976562 22.1388C-0.000976562 33.8453 9.62483 43.3355 21.4989 43.3355Z" fill="white"/>
<path d="M12.0691 30.4551H9.90542C9.75735 30.4551 9.63143 30.5611 9.60834 30.7052L8.73323 36.1753C8.71583 36.2832 8.80062 36.3806 8.91167 36.3806H9.94465C10.0927 36.3806 10.2186 36.2745 10.2417 36.1301L10.4777 34.6547C10.5005 34.5103 10.6268 34.4043 10.7745 34.4043H11.4595C12.8848 34.4043 13.7074 33.7243 13.9222 32.3768C14.019 31.7873 13.9263 31.3241 13.6463 30.9997C13.3388 30.6435 12.7933 30.4551 12.0691 30.4551ZM12.3188 32.4529C12.2004 33.2183 11.6072 33.2183 11.0336 33.2183H10.7071L10.9362 31.7888C10.9498 31.7024 11.0257 31.6388 11.1143 31.6388H11.264C11.6547 31.6388 12.0233 31.6388 12.2137 31.8584C12.3273 31.9894 12.3621 32.184 12.3188 32.4529Z" fill="#253B80"/>
<path d="M18.537 32.4283H17.5008C17.4125 32.4283 17.3363 32.492 17.3227 32.5784L17.2768 32.8641L17.2044 32.7605C16.98 32.4396 16.4798 32.3323 15.9806 32.3323C14.8356 32.3323 13.8577 33.1872 13.6672 34.3866C13.5682 34.9848 13.709 35.5569 14.0532 35.9558C14.369 36.3226 14.8207 36.4755 15.3583 36.4755C16.2808 36.4755 16.7924 35.8906 16.7924 35.8906L16.7462 36.1745C16.7288 36.283 16.8136 36.3803 16.924 36.3803H17.8574C18.0057 36.3803 18.131 36.2743 18.1544 36.1299L18.7144 32.6336C18.7322 32.526 18.6477 32.4283 18.537 32.4283ZM17.0927 34.4165C16.9927 35.0001 16.5229 35.3919 15.9237 35.3919C15.6228 35.3919 15.3823 35.2967 15.2279 35.1164C15.0748 34.9374 15.0166 34.6826 15.0653 34.3987C15.1586 33.8201 15.6364 33.4156 16.2264 33.4156C16.5207 33.4156 16.7598 33.5119 16.9174 33.6938C17.0753 33.8775 17.1379 34.1339 17.0927 34.4165Z" fill="#253B80"/>
<path d="M24.0551 32.4282H23.0139C22.9145 32.4282 22.8212 32.4769 22.7649 32.5583L21.3288 34.6438L20.7201 32.6397C20.6818 32.5143 20.5644 32.4282 20.4316 32.4282H19.4084C19.2841 32.4282 19.1977 32.548 19.2372 32.6634L20.3841 35.9816L19.3059 37.4822C19.2211 37.6004 19.3065 37.7629 19.453 37.7629H20.4929C20.5917 37.7629 20.684 37.7155 20.74 37.6357L24.2031 32.7074C24.286 32.5895 24.2009 32.4282 24.0551 32.4282Z" fill="#253B80"/>
<path d="M27.5022 30.4551H25.3382C25.1905 30.4551 25.0645 30.5611 25.0414 30.7052L24.1663 36.1753C24.1489 36.2832 24.2337 36.3806 24.3441 36.3806H25.4546C25.5578 36.3806 25.646 36.3063 25.6622 36.2053L25.9105 34.6547C25.9333 34.5103 26.0596 34.4043 26.2073 34.4043H26.892C28.3176 34.4043 29.1398 33.7243 29.355 32.3768C29.4521 31.7873 29.3588 31.3241 29.0788 30.9997C28.7716 30.6435 28.2264 30.4551 27.5022 30.4551ZM27.7519 32.4529C27.6339 33.2183 27.0407 33.2183 26.4667 33.2183H26.1405L26.3699 31.7888C26.3835 31.7024 26.4588 31.6388 26.5477 31.6388H26.6974C27.0878 31.6388 27.4567 31.6388 27.6472 31.8584C27.7607 31.9894 27.7952 32.184 27.7519 32.4529Z" fill="#179BD7"/>
<path d="M33.9697 32.4283H32.9342C32.8453 32.4283 32.7697 32.492 32.7564 32.5784L32.7105 32.8641L32.6377 32.7605C32.4134 32.4396 31.9135 32.3323 31.4143 32.3323C30.2693 32.3323 29.2917 33.1872 29.1012 34.3866C29.0025 34.9848 29.1427 35.5569 29.4869 35.9558C29.8033 36.3226 30.2544 36.4755 30.792 36.4755C31.7145 36.4755 32.2261 35.8906 32.2261 35.8906L32.1799 36.1745C32.1625 36.283 32.2473 36.3803 32.3584 36.3803H33.2914C33.4391 36.3803 33.565 36.2743 33.5881 36.1299L34.1484 32.6336C34.1655 32.526 34.0807 32.4283 33.9697 32.4283ZM32.5254 34.4165C32.4261 35.0001 31.9556 35.3919 31.3564 35.3919C31.0561 35.3919 30.8151 35.2967 30.6607 35.1164C30.5075 34.9374 30.45 34.6826 30.498 34.3987C30.592 33.8201 31.0691 33.4156 31.6592 33.4156C31.9534 33.4156 32.1926 33.5119 32.3501 33.6938C32.5086 33.8775 32.5713 34.1339 32.5254 34.4165Z" fill="#179BD7"/>
<path d="M35.1911 30.6054L34.3031 36.1756C34.2857 36.2836 34.3704 36.3809 34.4809 36.3809H35.3737C35.5221 36.3809 35.648 36.2748 35.6708 36.1304L36.5465 30.6606C36.5639 30.5527 36.4791 30.4551 36.3687 30.4551H35.3689C35.2807 30.4554 35.2047 30.519 35.1911 30.6054Z" fill="#179BD7"/>
<path d="M18.6017 28.5165L19.006 25.9846L18.1054 25.964H13.8047L16.7934 7.28068C16.8027 7.22428 16.8329 7.17169 16.8769 7.13434C16.921 7.09699 16.9774 7.07642 17.0362 7.07642H24.2877C26.6951 7.07642 28.3565 7.57031 29.2239 8.54514C29.6305 9.00244 29.8895 9.48033 30.0148 10.0062C30.1462 10.5581 30.1485 11.2173 30.0202 12.0214L30.0109 12.0801V12.5954L30.4175 12.8225C30.76 13.0016 31.0321 13.2066 31.2409 13.4414C31.5888 13.8324 31.8137 14.3293 31.9088 14.9185C32.007 15.5244 31.9745 16.2454 31.8137 17.0617C31.6282 18.0007 31.3282 18.8185 30.9231 19.4877C30.5505 20.1043 30.0758 20.6158 29.5122 21.0121C28.9742 21.3886 28.3348 21.6744 27.612 21.8574C26.9116 22.0372 26.113 22.1279 25.2371 22.1279H24.6727C24.2692 22.1279 23.8772 22.2712 23.5695 22.5281C23.2611 22.7903 23.057 23.1485 22.9944 23.5402L22.9518 23.7681L22.2375 28.2307L22.205 28.3946C22.1965 28.4464 22.1818 28.4723 22.1602 28.4898C22.1409 28.5058 22.113 28.5165 22.086 28.5165H18.6017Z" fill="#253B80"/>
<path d="M30.8025 12.1399C30.7809 12.2763 30.7561 12.4158 30.7283 12.5591C29.772 17.3997 26.5003 19.0719 22.3218 19.0719H20.1942C19.6832 19.0719 19.2526 19.4378 19.173 19.9347L18.0837 26.7455L17.7753 28.6761C17.7235 29.0023 17.9786 29.2965 18.3125 29.2965H22.086C22.5328 29.2965 22.9124 28.9764 22.9828 28.542L23.0199 28.353L23.7303 23.9079L23.7759 23.664C23.8455 23.2281 24.2259 22.908 24.6727 22.908H25.2371C28.893 22.908 31.755 21.4446 32.5914 17.2099C32.9409 15.4409 32.76 13.9638 31.8354 12.9249C31.5555 12.6117 31.2084 12.3518 30.8025 12.1399Z" fill="#179BD7"/>
<path d="M29.802 11.7478C29.6559 11.7059 29.5051 11.6678 29.3505 11.6335C29.1951 11.6 29.0359 11.5702 28.872 11.5443C28.2984 11.4529 27.6698 11.4094 26.9965 11.4094H21.3128C21.1728 11.4094 21.0399 11.4407 20.9208 11.4971C20.6587 11.6213 20.4639 11.866 20.4167 12.1655L19.2076 19.7157L19.1729 19.9359C19.2525 19.439 19.6831 19.0731 20.1941 19.0731H22.3216C26.5002 19.0731 29.7719 17.4002 30.7282 12.5603C30.7568 12.417 30.7807 12.2775 30.8024 12.1411C30.5604 12.0146 30.2983 11.9064 30.0162 11.8141C29.9466 11.7913 29.8747 11.7692 29.802 11.7478Z" fill="#222D65"/>
<path d="M20.4168 12.1656C20.464 11.8661 20.6588 11.6214 20.9209 11.498C21.0407 11.4416 21.1729 11.4103 21.3128 11.4103H26.9966C27.6699 11.4103 28.2984 11.4537 28.8721 11.5452C29.036 11.5711 29.1952 11.6008 29.3506 11.6344C29.5052 11.6687 29.656 11.7068 29.8021 11.7487C29.8747 11.7701 29.9466 11.7922 30.017 11.8143C30.2992 11.9065 30.5612 12.0155 30.8032 12.1412C31.0877 10.3524 30.8009 9.13444 29.8199 8.03156C28.7383 6.81741 26.7863 6.29761 24.2884 6.29761H17.0369C16.5266 6.29761 16.0914 6.66345 16.0125 7.16116L12.9921 26.0365C12.9326 26.41 13.2248 26.7469 13.6067 26.7469H18.0836L19.2077 19.7158L20.4168 12.1656Z" fill="#253B80"/>
</svg>
