<svg width="43" height="44" viewBox="0 0 43 44" fill="none" xmlns="http://www.w3.org/2000/svg">
<path d="M21.4998 43.3355C33.3739 43.3355 42.9997 33.8453 42.9997 22.1388C42.9997 10.4323 33.3739 0.942139 21.4998 0.942139C9.6258 0.942139 0 10.4323 0 22.1388C0 33.8453 9.6258 43.3355 21.4998 43.3355Z" fill="#5440D7"/>
<path fill-rule="evenodd" clip-rule="evenodd" d="M20.3897 23.8272C20.3949 23.8338 20.4926 23.9629 20.653 23.9959C20.9628 24.0652 21.2659 24.0388 21.5024 23.9959C21.5885 23.9787 21.6683 23.9387 21.7333 23.8805C21.7983 23.8223 21.8462 23.7482 21.8719 23.6654C21.8901 23.6027 21.9093 23.54 21.9288 23.4773C21.9649 23.3576 21.9521 23.2286 21.8932 23.1181C21.8343 23.0076 21.7339 22.9245 21.6135 22.886C21.2376 22.7702 20.8106 22.6346 20.4552 22.5221C20.1285 22.419 19.8467 22.2103 19.6554 21.9296C19.4641 21.6489 19.3746 21.3127 19.4012 20.9755L19.4034 20.9527C19.4217 20.7157 19.4968 20.4862 19.6226 20.2834C19.7483 20.0807 19.9211 19.9105 20.1268 19.7865C20.146 19.7766 20.1654 19.763 20.1834 19.7531C20.4647 19.5829 20.7849 19.4856 21.1145 19.4694C21.4442 19.4533 21.7727 19.5192 22.0697 19.6611C22.1936 19.7205 22.301 19.7697 22.3603 19.7994C22.4833 19.8604 22.5768 19.9672 22.6203 20.0959C22.6639 20.2246 22.654 20.3652 22.5928 20.4868C22.5625 20.5471 22.5204 20.6007 22.469 20.645C22.4175 20.6893 22.3577 20.7232 22.293 20.7446C22.2283 20.7661 22.1599 20.775 22.0918 20.7704C22.0236 20.7658 21.9571 20.7476 21.8959 20.7177C21.8399 20.688 21.7395 20.6419 21.619 20.5858C21.4785 20.5176 21.3228 20.4857 21.1664 20.4932C21.01 20.5007 20.8582 20.5473 20.7251 20.6286L20.6685 20.662C20.603 20.7011 20.548 20.7552 20.5081 20.8197C20.4681 20.8841 20.4445 20.9565 20.439 21.0318L20.4372 21.0552C20.4289 21.1623 20.4574 21.269 20.518 21.3582C20.5786 21.4474 20.6678 21.5143 20.7714 21.5475C21.1268 21.66 21.5538 21.7917 21.9294 21.9108C22.3093 22.0306 22.6264 22.2926 22.8125 22.6404C22.9985 22.9883 23.0387 23.3941 22.9243 23.7709C22.9048 23.8339 22.8856 23.8966 22.8671 23.9596C22.7868 24.2214 22.6356 24.4566 22.4298 24.64C22.224 24.8233 21.9713 24.9481 21.699 25.0004C21.3405 25.0664 20.8882 25.0995 20.4256 24.9975C19.621 24.8189 19.4213 24.2005 19.4213 24.2005C19.3977 24.1373 19.387 24.0702 19.3898 24.003C19.3926 23.9357 19.4089 23.8695 19.4376 23.8084C19.4664 23.7473 19.5071 23.6928 19.5574 23.6472C19.6077 23.6017 19.6666 23.566 19.7308 23.5429C19.9947 23.4469 20.2869 23.576 20.3897 23.8272ZM4.43893 21.2867C4.5631 20.0673 5.60699 19.1155 6.87457 19.1155C8.22554 19.1155 9.32269 20.1957 9.32269 21.5276C9.32276 21.9697 9.19971 22.4032 8.96696 22.7811C8.73421 23.159 8.4007 23.4669 8.00278 23.6707C7.60487 23.8745 7.15782 23.9668 6.7104 23.9373C6.26298 23.9079 5.83235 23.7579 5.46547 23.5037V24.6271C5.46547 24.9112 5.23265 25.1393 4.94627 25.1393C4.65927 25.1393 4.42676 24.9112 4.42676 24.6271V21.3951C4.42676 21.3588 4.43102 21.323 4.43893 21.2867ZM6.87457 20.1399C7.65246 20.1399 8.28367 20.7607 8.28367 21.5276C8.28391 21.8024 8.20147 22.0713 8.04678 22.3C7.8921 22.5286 7.67211 22.7068 7.41465 22.8121C7.15719 22.9175 6.87383 22.9453 6.60041 22.8918C6.327 22.8384 6.07581 22.7058 5.87862 22.5115C5.68143 22.3173 5.54711 22.0702 5.49264 21.8007C5.43817 21.5311 5.466 21.2517 5.57262 20.9978C5.67923 20.7439 5.85984 20.5264 6.09159 20.3737C6.32334 20.221 6.59582 20.1399 6.87457 20.1399ZM11.8323 19.4624H11.8408C11.9083 19.4619 11.9753 19.475 12.0376 19.5005C12.1 19.526 12.1565 19.5638 12.2039 19.6113C12.2495 19.6578 12.2873 19.71 12.314 19.773L14.2755 24.2966C14.3023 24.3583 14.3165 24.4246 14.3172 24.4917C14.318 24.5588 14.3053 24.6252 14.2799 24.6874C14.2545 24.7497 14.2169 24.8065 14.1693 24.8545C14.1216 24.9024 14.0649 24.9407 14.0022 24.967C13.8758 25.0204 13.733 25.0224 13.6052 24.9723C13.4774 24.9221 13.375 24.8243 13.3205 24.6997L11.8365 21.2768L10.3526 24.6997C10.298 24.8243 10.1956 24.9221 10.0678 24.9723C9.94004 25.0224 9.79727 25.0204 9.67085 24.967C9.60819 24.9407 9.55139 24.9024 9.50372 24.8545C9.45604 24.8065 9.41842 24.7503 9.39301 24.688C9.36759 24.6257 9.35489 24.5588 9.35562 24.4917C9.35634 24.4246 9.37049 24.3583 9.39725 24.2966L11.3587 19.773C11.3855 19.71 11.4235 19.6578 11.4689 19.6113C11.5145 19.5651 11.5693 19.5287 11.6323 19.5023C11.6957 19.4763 11.7636 19.4626 11.8323 19.4624ZM16.5133 21.997L17.8923 19.8228C17.9282 19.7655 17.9753 19.7155 18.0309 19.6763C18.0865 19.6371 18.1494 19.6088 18.216 19.5937C18.2826 19.5786 18.3516 19.577 18.419 19.5884C18.4864 19.5998 18.5507 19.6243 18.6084 19.6605C18.6662 19.696 18.7163 19.7424 18.7559 19.797C18.7955 19.8516 18.8238 19.9133 18.8391 19.9787C18.8544 20.0441 18.8565 20.1118 18.8452 20.1779C18.8339 20.2441 18.8095 20.3074 18.7734 20.3643L17.0112 23.1468V24.6271C17.0112 24.9112 16.7784 25.1393 16.4917 25.1393C16.2047 25.1393 15.9722 24.9112 15.9722 24.6271V23.077L14.2533 20.3649C14.2172 20.308 14.1928 20.2447 14.1815 20.1785C14.1703 20.1123 14.1724 20.0441 14.1877 19.9787C14.2031 19.9133 14.2314 19.8516 14.271 19.797C14.3106 19.7424 14.3607 19.6965 14.4186 19.6611C14.4762 19.625 14.5406 19.6004 14.6079 19.589C14.6753 19.5776 14.7442 19.5792 14.8108 19.5943C14.8774 19.6093 14.9403 19.6377 14.9958 19.6769C15.0514 19.7161 15.0985 19.7655 15.1344 19.8228L16.5133 21.997ZM23.8915 20.0537C23.8863 19.9836 23.8959 19.9132 23.9196 19.8468C23.9433 19.7805 23.9806 19.7196 24.0292 19.6681C24.0779 19.6166 24.1367 19.576 24.2021 19.548C24.2675 19.5199 24.3381 19.5051 24.4095 19.5052H26.5922C26.8789 19.5052 27.1114 19.7332 27.1114 20.0174C27.1114 20.2982 26.8789 20.5296 26.5922 20.5296H24.929V21.5903H26.5922C26.8789 21.5903 27.1114 21.8213 27.1114 22.1025C27.1114 22.3866 26.8789 22.6147 26.5922 22.6147H24.929V24.1149H26.5922C26.8789 24.1149 27.1114 24.3462 27.1114 24.6271C27.1114 24.9112 26.8789 25.1393 26.5922 25.1393H24.3662L24.3632 25.1358H24.337L24.3337 25.1322H24.3175L24.3145 25.1293H24.3017L24.2987 25.1258H24.2859L24.2829 25.1229H24.2737L24.2707 25.1193H24.2612L24.2582 25.1158H24.2491L24.246 25.1129H24.2399L24.2369 25.1094H24.2308L24.2278 25.1059H24.222L24.2189 25.1029H24.2132L24.2101 25.0994H24.2074L24.2043 25.0959H24.1986L24.1958 25.093H24.19L24.187 25.0895H24.1842L24.1815 25.0865H24.176L24.173 25.083H24.1702L24.1675 25.0795H24.1645L24.162 25.0766H24.159L24.1566 25.073H24.1511L24.148 25.0695H24.1456L24.1429 25.0666H24.1401L24.1377 25.0631H24.1346L24.1322 25.0602H24.1295L24.127 25.0566H24.1243L24.1219 25.0531H24.1191L24.1167 25.0502H24.1139L24.1115 25.0467L24.1088 25.0432H24.1063L24.1039 25.0402H24.1012L24.0987 25.0367H24.0963L24.0939 25.0332H24.0914L24.089 25.0303L24.0865 25.0268H24.0841L24.0817 25.0238H24.0792L24.0744 25.0168H24.0719L24.0695 25.0139H24.0674L24.0649 25.0103L24.0625 25.0068H24.0604L24.0579 25.0033H24.0558L24.0534 25.0004L24.0512 24.9969H24.0488L24.0467 24.9939L24.0445 24.9904H24.0421L24.0379 24.9834H24.0357L24.0315 24.9769H24.0293L24.0251 24.9705H24.0229L24.0187 24.964L24.0169 24.9611H24.0147L24.0108 24.9541H24.0086L24.0047 24.9476L24.0029 24.9441H24.0007L23.9971 24.9377H23.9953L23.9931 24.9347L23.9895 24.9277H23.9876L23.984 24.9207L23.9806 24.9142H23.9788L23.977 24.9113L23.9755 24.9078L23.9736 24.9049H23.9718L23.9688 24.8978L23.9654 24.8914H23.9636L23.9621 24.8879L23.9606 24.8849L23.959 24.8814L23.9572 24.8779H23.9557L23.9542 24.875L23.9526 24.8715L23.9484 24.8615H23.9469L23.9426 24.8515L23.9399 24.8451H23.9386L23.9347 24.8351L23.9323 24.8287L23.9307 24.8252L23.9295 24.8222H23.9286L23.9274 24.8187L23.9262 24.8152L23.9237 24.8088L23.9207 24.7988H23.9195L23.9173 24.7923L23.9164 24.7888L23.9152 24.7859L23.9143 24.7824L23.9113 24.7724L23.9106 24.7689L23.9097 24.766H23.9088L23.9073 24.7589L23.9055 24.7525L23.9049 24.749L23.9027 24.739L23.9018 24.7361L23.9012 24.7326L23.8994 24.7226L23.8988 24.7197L23.8982 24.7162H23.8976L23.8966 24.7097L23.896 24.7062L23.8951 24.6997L23.8942 24.6927L23.8939 24.6898L23.893 24.6828L23.8924 24.6763L23.8918 24.6699L23.8912 24.6599V24.657L23.8906 24.6499V24.6435L23.8903 24.6406V20.0936C23.8903 20.0804 23.8903 20.0669 23.8915 20.0537ZM31.8631 23.0706V20.0174C31.8631 19.7332 32.0959 19.5052 32.3826 19.5052C32.6693 19.5052 32.9021 19.7332 32.9021 20.0174V24.6271C32.9021 24.7343 32.868 24.8388 32.8047 24.926C32.7414 25.0131 32.652 25.0784 32.549 25.1129H32.5439L32.543 25.1158H32.5408C32.4893 25.1304 32.4361 25.1384 32.3826 25.1393C32.301 25.1396 32.2206 25.1202 32.1482 25.083C32.0755 25.0477 32.0125 24.9952 31.9647 24.9306L29.4512 21.5739V24.6271C29.4512 24.9112 29.2186 25.1393 28.932 25.1393C28.645 25.1393 28.4124 24.9112 28.4124 24.6271V20.0174C28.4125 19.9102 28.4465 19.8062 28.5098 19.7191C28.5731 19.632 28.6625 19.566 28.7655 19.5316H28.7685L28.7707 19.5286H28.7737C28.9038 19.49 29.0438 19.5012 29.1663 19.5591C29.2363 19.5951 29.2999 19.6478 29.3498 19.7138L31.8631 23.0706ZM34.0884 20.09V20.0174C34.0884 19.7332 34.3212 19.5052 34.6079 19.5052C34.6773 19.5052 34.7436 19.5184 34.8042 19.5415C34.9809 19.5177 35.1591 19.5055 35.3374 19.5052C37.144 19.5052 38.5729 20.784 38.5729 22.307C38.5729 23.827 37.144 25.1059 35.3377 25.1059C35.1551 25.1059 34.9737 25.113 34.7957 25.1229H34.743C34.7001 25.1328 34.6548 25.1393 34.6079 25.1393C34.3212 25.1393 34.0884 24.9112 34.0884 24.6271V20.09ZM35.1274 24.085C35.1974 24.085 35.2674 24.0815 35.3374 24.0815C36.5295 24.0815 37.5338 23.3115 37.5338 22.307C37.5338 21.2994 36.5295 20.5296 35.3374 20.5296C35.2668 20.5296 35.1965 20.533 35.1274 20.5366V24.085Z" fill="white"/>
</svg>
