<svg width="43" height="43" viewBox="0 0 43 43" fill="none" xmlns="http://www.w3.org/2000/svg">
<path d="M21.5 42.3937C33.3741 42.3937 43 32.9034 43 21.1968C43 9.49023 33.3741 0 21.5 0C9.62588 0 0 9.49023 0 21.1968C0 32.9034 9.62588 42.3937 21.5 42.3937Z" fill="#21B52B"/>
<path d="M11.2231 29.7497H11.427C11.5874 29.7497 11.7 29.7223 11.7648 29.6671C11.7962 29.6414 11.8212 29.6092 11.8381 29.5727C11.855 29.5362 11.8632 29.4968 11.8622 29.4567C11.8631 29.4176 11.856 29.3788 11.8415 29.3424C11.827 29.306 11.8053 29.2726 11.7776 29.2445C11.7213 29.1866 11.6154 29.1578 11.4599 29.1578H11.2231V29.7497ZM10.3877 28.6187H11.7703C12.0716 28.6187 12.2968 28.6889 12.4469 28.8302C12.5969 28.9712 12.6721 29.1725 12.6721 29.4332C12.6721 29.7012 12.5899 29.9105 12.4268 30.0615C12.2634 30.2121 12.0138 30.2877 11.6784 30.2877H11.2231V31.2722H10.3877V28.6187ZM13.0647 29.3494H13.7644V29.6647C13.8313 29.5285 13.9013 29.4347 13.9726 29.3834C14.0444 29.3324 14.1329 29.3061 14.2382 29.3061C14.3481 29.3061 14.4689 29.3399 14.5998 29.4075L14.3685 29.9325C14.2802 29.8965 14.2102 29.8786 14.1591 29.8786C14.1139 29.8771 14.0691 29.887 14.0291 29.9079C13.9892 29.9288 13.9555 29.9598 13.9315 29.9976C13.8545 30.1098 13.8158 30.3197 13.8158 30.6276V31.2722H13.0647V29.3494ZM14.7541 29.3494H15.5013V31.2722H14.7541V29.3494ZM14.7541 28.6187H15.5013V29.1197H14.7541V28.6187ZM15.7584 29.3494H16.536L16.9143 30.5678L17.3069 29.35H18.0611L17.2324 31.2722H16.5695L15.7584 29.3494ZM19.6053 30.3603C19.5025 30.3963 19.3953 30.428 19.2839 30.4559C19.1321 30.4955 19.0359 30.5353 18.9957 30.5737C18.9763 30.5908 18.9608 30.6113 18.95 30.6346C18.9393 30.658 18.9336 30.6834 18.9333 30.709C18.9333 30.7669 18.9537 30.8145 18.9948 30.8514C19.0356 30.8883 19.0959 30.9065 19.1756 30.9065C19.2587 30.9065 19.3363 30.887 19.4078 30.8468C19.4796 30.8071 19.5302 30.7581 19.5603 30.7008C19.5901 30.6438 19.6053 30.5694 19.6053 30.4776V30.3598V30.3603ZM18.9571 29.9724L18.2428 29.8985C18.2696 29.7755 18.3085 29.6787 18.3593 29.6079C18.4175 29.5311 18.4925 29.4679 18.5788 29.4239C18.6473 29.3864 18.7416 29.3578 18.8618 29.3371C18.9903 29.3159 19.1205 29.3054 19.2508 29.3061C19.4748 29.3061 19.6549 29.319 19.7907 29.3436C19.9264 29.3685 20.0396 29.42 20.1303 29.4983C20.1942 29.5526 20.2441 29.6296 20.281 29.7292C20.3175 29.8285 20.3358 29.9234 20.3358 30.014V30.8632C20.3358 30.9532 20.3418 31.0246 20.3534 31.0759C20.3653 31.1272 20.3905 31.1927 20.4295 31.2722H19.7283C19.7066 31.2362 19.6883 31.1984 19.6735 31.1591C19.6617 31.119 19.6531 31.078 19.6476 31.0366C19.5496 31.1296 19.4522 31.196 19.3555 31.2359C19.2234 31.289 19.0697 31.3156 18.8947 31.3156C18.6622 31.3156 18.4857 31.2627 18.3651 31.1562C18.3075 31.108 18.2614 31.0476 18.2301 30.9798C18.1988 30.9119 18.183 30.8381 18.184 30.7635C18.184 30.6174 18.2276 30.497 18.3143 30.4031C18.4014 30.3089 18.5617 30.2392 18.7955 30.1933C19.0758 30.1378 19.2575 30.0986 19.3409 30.0761C19.4239 30.0539 19.5122 30.0251 19.6053 29.9888C19.6053 29.8985 19.5862 29.8349 19.5484 29.7989C19.5104 29.7629 19.4437 29.7444 19.3482 29.7444C19.2258 29.7444 19.1339 29.7637 19.0727 29.8024C19.0249 29.8324 18.9866 29.8893 18.9571 29.9724ZM21.6213 28.6187V29.3494H22.0328V29.8892H21.6213V30.5701C21.6213 30.6521 21.6292 30.7067 21.6453 30.7331C21.6697 30.7742 21.7126 30.7946 21.7738 30.7946C21.8289 30.7946 21.9062 30.7786 22.0051 30.7471L22.0605 31.2558C21.8754 31.2957 21.7029 31.3156 21.5425 31.3156C21.3565 31.3156 21.2193 31.2921 21.1313 31.2453C21.043 31.1981 20.9739 31.1228 20.9356 31.0314C20.8933 30.9353 20.8723 30.78 20.8723 30.5655V29.8892H20.5969V29.3494H20.8723V28.9966L21.6213 28.6187ZM23.2794 30.702H23.7036C23.8467 30.702 23.9477 30.6771 24.0064 30.627C24.0652 30.5769 24.0947 30.5094 24.0947 30.4248C24.0959 30.3888 24.0886 30.3533 24.0735 30.3205C24.0583 30.2877 24.0357 30.2589 24.0073 30.2361C23.9495 30.1881 23.8476 30.164 23.7018 30.164H23.2794V30.702ZM23.2794 29.6594H23.6412C23.7709 29.6594 23.8613 29.6373 23.9121 29.5932C23.9626 29.5491 23.9882 29.4853 23.9882 29.4022C23.9882 29.3251 23.9626 29.2646 23.9121 29.2211C23.8613 29.1776 23.7727 29.156 23.6467 29.156H23.2794V29.6594ZM22.4403 28.6187H23.9976C24.2569 28.6187 24.4559 28.6813 24.595 28.8085C24.7338 28.9351 24.8035 29.0922 24.8035 29.2791C24.8035 29.436 24.7539 29.5707 24.6547 29.6829C24.5886 29.7579 24.4922 29.817 24.3646 29.8605C24.5579 29.9064 24.7003 29.985 24.7916 30.0966C24.8829 30.2082 24.9286 30.3485 24.9286 30.5174C24.9286 30.6548 24.8957 30.7785 24.8312 30.8884C24.7674 30.9969 24.6755 31.0872 24.5649 31.1491C24.4949 31.1891 24.3896 31.2179 24.249 31.2359C24.0615 31.2599 23.9373 31.2722 23.8762 31.2722H22.4403V28.6187ZM26.6433 30.3603C26.5407 30.3963 26.4333 30.428 26.3219 30.4559C26.1703 30.4955 26.0741 30.5353 26.0337 30.5737C26.0143 30.5908 25.9987 30.6113 25.988 30.6346C25.9773 30.658 25.9716 30.6834 25.9713 30.709C25.9713 30.7669 25.992 30.8145 26.0327 30.8514C26.0738 30.8883 26.1341 30.9065 26.2135 30.9065C26.2969 30.9065 26.3742 30.887 26.446 30.8468C26.5176 30.8071 26.5684 30.7581 26.5982 30.7008C26.6283 30.6438 26.6433 30.5694 26.6433 30.4776V30.3598V30.3603ZM25.995 29.9724L25.281 29.8985C25.3078 29.7755 25.3468 29.6787 25.3976 29.6079C25.4484 29.5374 25.5215 29.4755 25.6167 29.4239C25.6855 29.3864 25.7798 29.3578 25.8998 29.3371C26.0285 29.3159 26.1588 29.3054 26.2893 29.3061C26.513 29.3061 26.6929 29.319 26.8289 29.3436C26.9646 29.3685 27.0779 29.42 27.1686 29.4983C27.2322 29.5526 27.2824 29.6296 27.3189 29.7292C27.3557 29.8285 27.3743 29.9234 27.3743 30.014V30.8632C27.3743 30.9532 27.3798 31.0246 27.3916 31.0759C27.4032 31.1272 27.4285 31.1927 27.4677 31.2722H26.7662C26.7446 31.2362 26.7262 31.1984 26.7114 31.1591C26.6996 31.119 26.691 31.078 26.6856 31.0366C26.5876 31.1296 26.4902 31.196 26.3934 31.2359C26.2613 31.289 26.1079 31.3156 25.9326 31.3156C25.7001 31.3156 25.5236 31.2627 25.4031 31.1562C25.3454 31.108 25.2993 31.0476 25.268 30.9798C25.2367 30.9119 25.221 30.8381 25.222 30.7635C25.222 30.6174 25.2655 30.497 25.3525 30.4031C25.4396 30.3089 25.5997 30.2392 25.8334 30.1933C26.1137 30.1378 26.2957 30.0986 26.3791 30.0761C26.4687 30.0517 26.5569 30.0227 26.6433 29.9888C26.6433 29.8985 26.6244 29.8349 26.5863 29.7989C26.5486 29.7629 26.4817 29.7444 26.3864 29.7444C26.2637 29.7444 26.1721 29.7637 26.111 29.8024C26.0632 29.8324 26.0242 29.8893 25.995 29.9724ZM27.8223 29.3494H28.5183V29.663C28.6221 29.5351 28.7274 29.4439 28.8339 29.3887C28.9404 29.3338 29.0701 29.3061 29.2235 29.3061C29.4301 29.3061 29.5917 29.3671 29.7089 29.4883C29.8258 29.6095 29.8842 29.7971 29.8842 30.0503V31.2722H29.1331V30.215C29.1331 30.0944 29.1106 30.009 29.0652 29.9589C29.0202 29.9091 28.9563 29.8839 28.8744 29.8839C28.8322 29.8828 28.7903 29.8909 28.7521 29.9085C28.7139 29.9261 28.6803 29.9527 28.6541 29.9853C28.5977 30.0531 28.5694 30.1743 28.5694 30.3492V31.2722H27.8223V29.3494ZM30.3304 28.6187H31.0943V29.9882L31.6524 29.3494H32.5725L31.8728 30.0234L32.6126 31.2722H31.7708L31.3758 30.5016L31.0943 30.7729V31.2722H30.3304V28.6187Z" fill="white"/>
<path fill-rule="evenodd" clip-rule="evenodd" d="M13.1396 20.8455H19.5111V27.126H13.1396V20.8455Z" fill="#221E1F"/>
<path d="M26.0728 14.386V23.8077H24.7739C24.2133 19.1479 21.2417 16.2212 16.5162 15.6688V14.386H26.0728ZM13.1468 11.0649V18.8809H14.8322C19.2647 18.8809 21.5138 21.098 21.5138 25.4673V27.1287H29.4419V11.0649H13.1468Z" fill="white"/>
</svg>
