<svg width="43" height="44" viewBox="0 0 43 44" fill="none" xmlns="http://www.w3.org/2000/svg">
<path d="M42.999 22.1398C42.999 33.8458 33.3732 43.3354 21.499 43.3354C9.6249 43.3354 -0.000976562 33.8458 -0.000976562 22.1398C-0.000976562 10.4337 9.6249 0.944092 21.499 0.944092C33.3732 0.944092 42.999 10.4337 42.999 22.1398Z" fill="white"/>
<path d="M15.919 26.2058L17.5636 16.6288H20.228L18.5824 26.2058H15.919ZM28.0652 16.8761C27.2993 16.6046 26.4908 16.4684 25.6769 16.4738C23.0447 16.4738 21.1904 17.7732 21.1753 19.635C21.1602 21.011 22.4985 21.7779 23.5092 22.2369C24.5462 22.7048 24.8948 23.0059 24.8898 23.4251C24.8838 24.0669 24.0615 24.36 23.2956 24.36C22.2294 24.36 21.663 24.2149 20.7873 23.8573L20.4447 23.7043L20.0708 25.8482C20.6926 26.1164 21.8444 26.3479 23.0386 26.3598C25.8381 26.3598 27.656 25.0752 27.6762 23.0873C27.6863 21.9985 26.9768 21.1689 25.439 20.4854C24.5089 20.0433 23.9385 19.7473 23.9446 19.2982C23.9446 18.9008 24.4283 18.4736 25.4703 18.4736C26.1537 18.4588 26.8328 18.584 27.4646 18.8412L27.7034 18.9515L28.0652 16.8761ZM32.607 16.6288C31.9681 16.6288 31.5066 16.8205 31.2264 17.4434L27.2791 26.2058H30.0978L30.646 24.7385H34.0158L34.3282 26.2058H36.8355L34.6427 16.6288H32.605H32.607ZM31.3957 22.8221C31.6154 22.2707 32.4559 20.1457 32.4559 20.1457C32.4408 20.1705 32.6756 19.5913 32.8096 19.2317L32.99 20.0562L33.6067 22.8221H31.3957ZM11.0617 23.1936L10.8269 21.8802C10.3412 20.3503 8.83157 18.6942 7.1416 17.8646L9.49466 26.2058H12.3163L16.5458 16.6288H13.7261L11.0617 23.1936Z" fill="#293688"/>
<path d="M4.24545 16.6289V16.7839C7.5881 17.5757 9.90891 19.5795 10.827 21.8804L9.86155 17.4455C9.70031 16.8395 9.21156 16.6498 8.63312 16.6289H4.24545ZM21.4968 43.3354C29.7955 43.3354 36.9907 38.6978 40.5753 31.9105H2.41943C6.00394 38.6978 13.1992 43.3354 21.4968 43.3354Z" fill="#F7981D"/>
<path d="M21.497 0.942139C13.3303 0.942139 6.22783 5.43163 2.58789 12.0432H40.4071C36.7672 5.43163 29.6647 0.942139 21.497 0.942139Z" fill="#293688"/>
</svg>
