<svg width="43" height="44" viewBox="0 0 43 44" fill="none" xmlns="http://www.w3.org/2000/svg">
<path d="M21.4993 43.3355C33.3734 43.3355 42.9992 33.8453 42.9992 22.1388C42.9992 10.4323 33.3734 0.942139 21.4993 0.942139C9.62532 0.942139 -0.000488281 10.4323 -0.000488281 22.1388C-0.000488281 33.8453 9.62532 43.3355 21.4993 43.3355Z" fill="#FBD800"/>
<path d="M3.69287 18.3176H4.94615L5.24379 20.5076H5.25292L5.58161 18.3176H7.02936L7.35774 20.5076H7.36687L7.66634 18.3176H8.9184L8.1545 21.801H6.63828L6.3102 19.543H6.30016L5.97299 21.801H4.45646L3.69287 18.3176ZM9.77512 18.3176H12.4609V19.2248H11.1157V19.5964H12.3587V20.5029H11.1157V20.8932H12.5054V21.801H9.77542L9.77512 18.3176ZM15.3674 19.3069C15.3625 19.0893 15.2405 19.0174 15.0588 19.0174C14.8342 19.0174 14.7362 19.1136 14.7362 19.2207C14.7362 19.3452 14.8196 19.3987 14.966 19.4416C15.2356 19.5185 15.7289 19.6163 16.0868 19.7657C16.5321 19.9487 16.7272 20.2619 16.7272 20.6817C16.7272 21.5359 16.0223 21.8924 15.0244 21.8924C14.1738 21.8924 13.3904 21.6321 13.3904 20.725H14.7313C14.7313 20.822 14.7508 20.9188 14.805 20.9905C14.8576 21.0586 14.9465 21.1007 15.0779 21.1007C15.2843 21.1007 15.4158 20.9716 15.4158 20.8165C15.4158 20.6865 15.3135 20.6184 15.1811 20.5809L14.1878 20.2908C13.6442 20.1318 13.4543 19.8087 13.4543 19.3608C13.4543 18.6368 14.0459 18.2268 15.0779 18.2268C15.959 18.2268 16.6194 18.4967 16.6194 19.3069H15.3674ZM18.3965 19.2529H17.5255V18.3176H20.6666V19.2529H19.7964V21.801H18.3965V19.2529ZM21.6155 18.3176H24.3028V19.2248H22.9576V19.5964H24.1996V20.5029H22.9573V20.8932H24.3463V21.801H21.6155V18.3176ZM25.3841 18.3176H27.4737C28.2316 18.3176 28.6765 18.5449 28.6765 19.2002C28.6765 19.6017 28.5061 19.9046 27.9765 20.0306V20.04C28.3195 20.0688 28.5061 20.2189 28.5748 20.4842C28.6528 20.7836 28.6433 21.2747 28.8043 21.801H27.4336C27.3508 21.54 27.3073 21.1007 27.2586 20.8024C27.2281 20.6293 27.1405 20.5604 26.9156 20.5604H26.7543V21.8016H25.3848V18.3176M26.8715 19.7698C27.1396 19.7698 27.3359 19.6781 27.3359 19.4176C27.3359 19.1614 27.1545 19.1088 26.8812 19.1088H26.754V19.7698H26.8715ZM29.777 18.3176H31.4551L32.2038 20.4262H32.2138V18.3176H33.349V21.801H31.6712L30.9225 19.6784H30.9128V21.801H29.777V18.3176ZM16.6989 24.7974C16.6989 25.6369 16.0868 26.0562 15.0204 26.0562C13.954 26.0562 13.3423 25.6369 13.3423 24.7974V22.482H14.7417V24.7399C14.7417 25.0142 14.874 25.1203 15.0204 25.1203C15.1677 25.1203 15.2995 25.0142 15.2995 24.7399V22.482H16.6989V24.7974ZM17.8584 22.482H19.5365L20.2849 24.5899H20.2947V22.482H21.4298V25.9647H19.7514L19.0024 23.8421H18.9939V25.9647H17.8581L17.8584 22.482ZM22.6137 22.4831H24.0122V25.9659H22.6137V22.4825V22.4831ZM26.8955 22.3905C28.1144 22.3905 28.7203 23.1381 28.7203 24.2236C28.7203 25.3089 28.1144 26.0562 26.8955 26.0562C25.6766 26.0562 25.0704 25.3089 25.0704 24.2236C25.0701 23.1384 25.676 22.3905 26.8955 22.3905ZM26.8955 25.1496C27.1104 25.1496 27.272 25.0293 27.272 24.2236C27.272 23.4369 27.1198 23.2971 26.8955 23.2971C26.6703 23.2971 26.5184 23.4369 26.5184 24.2236C26.5184 25.0293 26.6806 25.1496 26.8958 25.1496H26.8955ZM29.777 22.482H31.4551L32.2038 24.5899H32.2138V22.482H33.349V25.9647H31.6712L30.9225 23.8421H30.9128V25.9647H29.777V22.482ZM34.3664 18.2491H34.8132V25.9776H34.3664V18.2491ZM37.5322 18.3223H37.9787V25.9718H37.5322V18.3223ZM38.3649 18.7355C38.3649 18.4804 38.5761 18.2725 38.8363 18.2725C39.0965 18.2725 39.3062 18.4804 39.3062 18.7355C39.3078 18.7974 39.2968 18.8589 39.2739 18.9166C39.2509 18.9742 39.2165 19.0269 39.1727 19.0713C39.1288 19.1156 39.0764 19.1509 39.0185 19.175C38.9606 19.1991 38.8984 19.2113 38.8355 19.2113C38.7727 19.2113 38.7105 19.1991 38.6526 19.175C38.5947 19.1509 38.5423 19.1156 38.4984 19.0713C38.4546 19.0269 38.4201 18.9742 38.3972 18.9166C38.3743 18.8589 38.3633 18.7974 38.3649 18.7355ZM39.2319 18.7355C39.2319 18.5095 39.0658 18.334 38.8363 18.334C38.6074 18.334 38.4397 18.5095 38.4397 18.7355C38.4397 18.9632 38.6074 19.1398 38.8363 19.1398C39.0658 19.1398 39.2319 18.9632 39.2319 18.7355ZM39.0713 18.9951H38.9943L38.8439 18.7554H38.7261V18.9951H38.6622V18.477H38.8905C39.0305 18.477 39.0779 18.5287 39.0779 18.6142C39.0779 18.7153 39.0055 18.753 38.9127 18.7554L39.0713 18.9951ZM38.8241 18.7056C38.8993 18.7056 39.0086 18.7177 39.0086 18.613C39.0086 18.532 38.9413 18.5222 38.8768 18.5222H38.7255V18.7056H38.8241Z" fill="black"/>
</svg>
