<svg width="40" height="40" viewBox="0 0 40 40" fill="none" xmlns="http://www.w3.org/2000/svg">
<path d="M20 39.4357C31.0457 39.4357 39.9999 30.6077 39.9999 19.7178C39.9999 8.82799 31.0457 0 20 0C8.9543 0 0 8.82799 0 19.7178C0 30.6077 8.9543 39.4357 20 39.4357Z" fill="#0082ED"/>
<path d="M24.4784 10.4462H27.0563V6.02039C26.611 5.95939 25.0821 5.82446 23.302 5.82446C19.5871 5.82446 17.0421 8.1275 17.0421 12.3621V16.2593H12.9419V21.2055H17.0421V33.6522H22.0684V21.2073H26.0017L26.627 16.2611H22.0675V12.8537C22.0675 11.424 22.4584 10.4453 24.4794 10.4453L24.4784 10.4462Z" fill="white"/>
</svg>
