<svg width="40" height="40" viewBox="0 0 40 40" fill="none" xmlns="http://www.w3.org/2000/svg">
<path d="M20 39.4357C31.0457 39.4357 39.9999 30.6077 39.9999 19.7178C39.9999 8.82799 31.0457 0 20 0C8.9543 0 0 8.82799 0 19.7178C0 30.6077 8.9543 39.4357 20 39.4357Z" fill="#E11491"/>
<path d="M20.2782 33.6522H19.9969C17.7847 33.6569 15.7412 33.6014 13.7529 33.4822C11.9297 33.3731 10.2658 32.7521 8.94129 31.6865C7.66268 30.6588 6.78902 29.2689 6.34563 27.5555C5.96036 26.0648 5.93974 24.6009 5.92006 23.1841C5.90599 22.1694 5.89193 20.9661 5.88818 19.7416C5.891 18.5125 5.90599 17.3083 5.92006 16.2926C5.9388 14.8768 5.96036 13.4129 6.34563 11.9213C6.78902 10.2088 7.66268 8.81881 8.94129 7.79021C10.2668 6.72556 11.9297 6.10452 13.7529 5.99454C15.8338 5.87269 17.9181 5.81629 20.0026 5.82542C22.2158 5.8208 24.2593 5.87532 26.2475 5.99454C28.0708 6.10452 29.7346 6.72464 31.0592 7.79021C32.3387 8.81881 33.2114 10.2088 33.6548 11.9213C34.0401 13.4129 34.0607 14.8768 34.0804 16.2926C34.0945 17.3083 34.1095 18.5115 34.1123 19.7361V19.7416C34.1084 20.8895 34.0977 22.0373 34.0804 23.1851C34.0617 24.6009 34.041 26.0648 33.6548 27.5564C33.2114 29.2689 32.3387 30.6588 31.0592 31.6874C29.7337 32.7521 28.0708 33.3731 26.2475 33.4822C24.3446 33.5968 22.3883 33.6522 20.2782 33.6522ZM19.9969 31.4777C22.0371 31.4865 24.0769 31.4313 26.1135 31.3122C27.4914 31.2291 28.6866 30.7892 29.6662 30.0018C30.5708 29.2744 31.1942 28.2708 31.5176 27.0185C31.8391 25.7774 31.8578 24.4438 31.8756 23.1555C31.8897 22.1463 31.9038 20.9513 31.9075 19.7388C31.9034 18.5999 31.8927 17.461 31.8756 16.3222C31.8578 15.0329 31.8391 13.7003 31.5176 12.4591C31.1942 11.2069 30.5708 10.2023 29.6662 9.47497C28.6866 8.6885 27.4914 8.24767 26.1135 8.1645C24.0788 8.04563 22.0408 7.99046 20.0026 7.99907C17.9628 7.99049 15.9232 8.04597 13.887 8.16542C12.509 8.24767 11.3138 8.6885 10.3343 9.47497C9.42967 10.2023 8.8063 11.2069 8.4829 12.4591C8.16137 13.7003 8.14262 15.0329 8.12481 16.3222C8.11075 17.3323 8.09669 18.5282 8.09294 19.7416C8.09575 20.9495 8.11075 22.1444 8.12481 23.1555C8.14262 24.4438 8.16137 25.7774 8.4829 27.0185C8.8063 28.2708 9.42967 29.2735 10.3343 30.0018C11.3138 30.7882 12.509 31.23 13.887 31.3122C15.8274 31.4287 17.8269 31.4832 19.9979 31.4786L19.9969 31.4777ZM19.9454 26.5324C16.1452 26.5324 13.0536 23.4845 13.0536 19.7388C13.0536 15.9922 16.1452 12.9452 19.9454 12.9452C23.7447 12.9452 26.8353 15.9922 26.8353 19.7379C26.8353 23.4845 23.7447 26.5324 19.9454 26.5324ZM19.9454 15.1189C18.7029 15.1201 17.5116 15.6072 16.6329 16.4733C15.7542 17.3394 15.2599 18.5138 15.2584 19.7388C15.2599 20.9638 15.7542 22.1382 16.6329 23.0043C17.5116 23.8704 18.7029 24.3575 19.9454 24.3588C21.1878 24.3573 22.3789 23.8699 23.2573 23.0036C24.1356 22.1373 24.6295 20.9628 24.6305 19.7379C24.629 18.5133 24.1349 17.3393 23.2566 16.4734C22.3783 15.6075 21.1875 15.1204 19.9454 15.1189ZM27.6077 10.7707C27.169 10.7707 26.7483 10.9425 26.4381 11.2483C26.1279 11.5541 25.9536 11.9689 25.9536 12.4014C25.9536 12.8339 26.1279 13.2486 26.4381 13.5544C26.7483 13.8603 27.169 14.0321 27.6077 14.0321C28.0464 14.0321 28.4671 13.8603 28.7773 13.5544C29.0875 13.2486 29.2617 12.8339 29.2617 12.4014C29.2617 11.9689 29.0875 11.5541 28.7773 11.2483C28.4671 10.9425 28.0464 10.7707 27.6077 10.7707Z" fill="white"/>
</svg>
