<svg width="40" height="40" viewBox="0 0 40 40" fill="none" xmlns="http://www.w3.org/2000/svg">
<path d="M20 39.4357C31.0457 39.4357 40 30.6077 40 19.7178C40 8.82799 31.0457 0 20 0C8.95431 0 0 8.82799 0 19.7178C0 30.6077 8.95431 39.4357 20 39.4357Z" fill="#CD0013"/>
<path d="M20.3843 5.82544C12.647 5.82544 8.53369 10.7134 8.53369 16.0422C8.53369 18.5134 9.93417 21.5964 12.1774 22.5733C12.8167 22.8579 12.7323 22.5114 13.2835 20.4357C13.3087 20.3518 13.3108 20.2628 13.2895 20.1778C13.2683 20.0929 13.2244 20.015 13.1626 19.9523C9.95666 16.2963 12.5373 8.78094 19.9268 8.78094C30.6207 8.78094 28.6221 23.369 21.7866 23.369C20.0253 23.369 18.712 22.0058 19.1282 20.3192C19.6316 18.3092 20.6168 16.1494 20.6168 14.7003C20.6168 11.0507 15.1011 11.5923 15.1011 16.4285C15.1011 17.9229 15.6373 18.932 15.6373 18.932C15.6373 18.932 13.8628 26.0001 13.5338 27.3208C12.976 29.5563 13.6088 33.1745 13.6641 33.4868C13.6978 33.6578 13.8928 33.7123 14.0025 33.5709C14.1778 33.3454 16.3225 30.328 16.9243 28.147C17.1428 27.3522 18.0399 24.1296 18.0399 24.1296C18.6313 25.1831 20.3365 26.0639 22.1541 26.0639C27.5591 26.0639 31.4662 21.3793 31.4662 15.5671C31.4475 9.99438 26.6105 5.82544 20.3843 5.82544Z" fill="white"/>
</svg>
