<svg width="40" height="40" viewBox="0 0 40 40" fill="none" xmlns="http://www.w3.org/2000/svg">
<path d="M20 39.4357C31.0457 39.4357 39.9999 30.6077 39.9999 19.7178C39.9999 8.82799 31.0457 0 20 0C8.9543 0 0 8.82799 0 19.7178C0 30.6077 8.9543 39.4357 20 39.4357Z" fill="#F70000"/>
<path d="M24.3445 18.491L18.1089 15.127C17.9347 15.0319 17.7382 14.9836 17.5391 14.987C17.3401 14.9904 17.1454 15.0454 16.9746 15.1464C16.8029 15.2457 16.6608 15.3879 16.5624 15.5585C16.464 15.7292 16.4128 15.9223 16.4141 16.1186V22.7884C16.4141 23.1895 16.6222 23.5517 16.9718 23.7569C17.1417 23.8573 17.3351 23.9124 17.5332 23.917C17.7312 23.9215 17.927 23.8753 18.1014 23.7828L24.3379 20.477C24.5197 20.3807 24.6717 20.2378 24.7779 20.0633C24.884 19.8889 24.9404 19.6894 24.9411 19.4859C24.9418 19.2825 24.8867 19.0826 24.7817 18.9075C24.6767 18.7324 24.5256 18.5884 24.3445 18.491ZM18.0677 21.9492V16.9642L22.7284 19.478L18.0677 21.9492Z" fill="white"/>
<path d="M33.9051 14.1726L33.9041 14.1596C33.8807 13.936 33.6417 11.9435 32.6602 10.9306C31.5241 9.73839 30.237 9.5933 29.6184 9.52399C29.5714 9.5189 29.5246 9.51336 29.4777 9.50735L29.4281 9.50273C25.6972 9.23472 20.0616 9.19775 20.0053 9.19775H19.995C19.9388 9.19775 14.3041 9.23472 10.5386 9.50273L10.4889 9.50735L10.3567 9.52306C9.7446 9.5933 8.47067 9.7384 7.33267 10.9731C6.39715 11.9758 6.12624 13.9249 6.09812 14.143L6.09531 14.1716C5.96546 15.6815 5.89604 17.1959 5.88721 18.7112V20.7933C5.88721 23.0206 6.08687 25.2395 6.09531 25.3329L6.09718 25.3477C6.12062 25.5676 6.35872 27.5232 7.33642 28.537C8.40412 29.6894 9.75397 29.8419 10.4805 29.9232C10.5948 29.9362 10.6932 29.9473 10.7617 29.9593L10.8264 29.9685C12.9805 30.17 19.7363 30.2698 20.0222 30.2735H20.0391C20.0953 30.2735 25.731 30.2365 29.4627 29.9694L29.5115 29.9648C29.5584 29.9584 29.6118 29.9528 29.6708 29.9463C30.2783 29.8835 31.5456 29.7504 32.6686 28.5324C33.6042 27.5296 33.8751 25.5806 33.9023 25.3615L33.9051 25.3338C33.9144 25.2395 34.1132 23.0206 34.1132 20.7933V18.7112C34.1132 16.4839 33.9135 14.2668 33.9051 14.1726ZM32.4587 20.7943C32.4493 22.2564 32.3827 23.7177 32.259 25.1748C32.1887 25.7109 31.9028 26.9446 31.4482 27.4335C30.7451 28.196 30.0233 28.2708 29.4956 28.3263C29.4368 28.3322 29.378 28.3386 29.3193 28.3457C25.7103 28.6026 20.2875 28.6423 20.0382 28.6442C19.7579 28.6396 13.1014 28.5398 11.0129 28.3484C10.8983 28.331 10.7833 28.3162 10.6679 28.3041C10.0493 28.2348 9.20372 28.1387 8.55317 27.4335L8.53723 27.4169C8.09009 26.9566 7.81262 25.8033 7.74232 25.1804C7.61834 23.7214 7.55142 22.2583 7.54171 20.7943V18.7121C7.54171 16.6531 7.72357 14.5321 7.74138 14.3334C7.82574 13.7003 8.11634 12.5414 8.55317 12.0738C9.27777 11.2882 10.0408 11.2004 10.5461 11.1431L10.6811 11.1274C14.3425 10.8687 19.8047 10.8308 20.0007 10.8289C20.1966 10.8298 25.656 10.8687 29.2846 11.1274L29.4309 11.1441C29.9502 11.2032 30.7357 11.2919 31.4557 12.0497L31.4632 12.0562C31.9112 12.5165 32.1878 13.6892 32.259 14.3251C32.2712 14.4637 32.4587 16.617 32.4587 18.7121V20.7943Z" fill="white"/>
</svg>
